<svg width="1920" height="1080" viewBox="300 600 1700 700" fill="none" xmlns="http://www.w3.org/2000/svg">
<g filter="url(#filter0_dd_2_4)">
<rect x="229" y="364" width="1920" height="1080" fill="url(#paint0_linear_2_4)" shape-rendering="crispEdges"/>
<rect x="229" y="364" width="1920" height="1080" fill="url(#paint1_radial_2_4)" fill-opacity="0.1" shape-rendering="crispEdges"/>
<rect x="229.5" y="364.5" width="1919" height="1079" stroke="black" shape-rendering="crispEdges"/>
<g clip-path="url(#clip0_2_4)">
<g filter="url(#filter1_f_2_4)">
<path d="M1244.47 1096.6C1665.09 1096.6 2006.07 808.898 2006.07 454C2006.07 99.1018 1665.09 -188.6 1244.47 -188.6C823.847 -188.6 482.867 99.1018 482.867 454C482.867 808.898 823.847 1096.6 1244.47 1096.6Z" fill="#D4FDFF"/>
<path d="M1679.67 1807.6C2100.29 1807.6 2441.27 1519.9 2441.27 1165C2441.27 810.102 2100.29 522.4 1679.67 522.4C1259.05 522.4 918.067 810.102 918.067 1165C918.067 1519.9 1259.05 1807.6 1679.67 1807.6Z" fill="url(#paint2_linear_2_4)" fill-opacity="0.4"/>
<path d="M1178.33 1595.2C1598.95 1595.2 1939.93 1307.5 1939.93 952.6C1939.93 597.702 1598.95 310 1178.33 310C757.713 310 416.733 597.702 416.733 952.6C416.733 1307.5 757.713 1595.2 1178.33 1595.2Z" fill="#D4FDFF"/>
<path d="M2114.87 1690.6C2535.49 1690.6 2876.47 1402.9 2876.47 1048C2876.47 693.102 2535.49 405.4 2114.87 405.4C1694.25 405.4 1353.27 693.102 1353.27 1048C1353.27 1402.9 1694.25 1690.6 2114.87 1690.6Z" fill="#D4FDFF"/>
<path d="M1816.2 1253.2C2236.82 1253.2 2577.8 965.498 2577.8 610.6C2577.8 255.702 2236.82 -32 1816.2 -32C1395.58 -32 1054.6 255.702 1054.6 610.6C1054.6 965.498 1395.58 1253.2 1816.2 1253.2Z" fill="url(#paint3_linear_2_4)" fill-opacity="0.4"/>
<path d="M316.467 1136.2C737.087 1136.2 1078.07 848.498 1078.07 493.6C1078.07 138.702 737.087 -149 316.467 -149C-104.153 -149 -445.133 138.702 -445.133 493.6C-445.133 848.498 -104.153 1136.2 316.467 1136.2Z" fill="#D4FDFF"/>
</g>
<path d="M229 880C578.596 880 862 638.905 862 341.5C862 44.0947 578.596 -197 229 -197C-120.596 -197 -404 44.0947 -404 341.5C-404 638.905 -120.596 880 229 880Z" fill="url(#paint4_radial_2_4)"/>
<path d="M186.5 1498C428.125 1498 624 1263.84 624 975C624 686.155 428.125 452 186.5 452C-55.1246 452 -251 686.155 -251 975C-251 1263.84 -55.1246 1498 186.5 1498Z" fill="url(#paint5_radial_2_4)"/>
<path d="M1324.5 793C1751.14 793 2097 659.133 2097 494C2097 328.867 1751.14 195 1324.5 195C897.86 195 552 328.867 552 494C552 659.133 897.86 793 1324.5 793Z" fill="url(#paint6_radial_2_4)"/>
<path d="M2027 1470C2477.11 1470 2842 1281.06 2842 1048C2842 814.936 2477.11 626 2027 626C1576.89 626 1212 814.936 1212 1048C1212 1281.06 1576.89 1470 2027 1470Z" fill="url(#paint7_radial_2_4)"/>
<path d="M2087 1097C2537.11 1097 2902 908.064 2902 675C2902 441.936 2537.11 253 2087 253C1636.89 253 1272 441.936 1272 675C1272 908.064 1636.89 1097 2087 1097Z" fill="url(#paint8_radial_2_4)"/>
</g>
<rect x="229" y="364" width="1920" height="1080" stroke="black"/>
<path d="M765.6 1285.2C1186.22 1285.2 1527.2 997.498 1527.2 642.6C1527.2 287.702 1186.22 0 765.6 0C344.98 0 4 287.702 4 642.6C4 997.498 344.98 1285.2 765.6 1285.2Z" fill="url(#paint9_radial_2_4)"/>
<path d="M1637.6 1571.2C2058.22 1571.2 2399.2 1283.5 2399.2 928.6C2399.2 573.702 2058.22 286 1637.6 286C1216.98 286 876 573.702 876 928.6C876 1283.5 1216.98 1571.2 1637.6 1571.2Z" fill="url(#paint10_radial_2_4)"/>
<path d="M1597 1150C1914.56 1150 2172 942.26 2172 686C2172 429.74 1914.56 222 1597 222C1279.44 222 1022 429.74 1022 686C1022 942.26 1279.44 1150 1597 1150Z" fill="url(#paint11_radial_2_4)"/>
<path d="M1028.5 1344C1552.34 1344 1977 1136.26 1977 880C1977 623.74 1552.34 416 1028.5 416C504.658 416 80 623.74 80 880C80 1136.26 504.658 1344 1028.5 1344Z" fill="url(#paint12_radial_2_4)"/>
<path d="M978.6 2086.2C1399.22 2086.2 1740.2 1798.5 1740.2 1443.6C1740.2 1088.7 1399.22 801 978.6 801C557.98 801 217 1088.7 217 1443.6C217 1798.5 557.98 2086.2 978.6 2086.2Z" fill="url(#paint13_radial_2_4)"/>
<path d="M382.5 959C467.276 959 536 787.973 536 577C536 366.027 467.276 195 382.5 195C297.724 195 229 366.027 229 577C229 787.973 297.724 959 382.5 959Z" fill="url(#paint14_radial_2_4)"/>
</g>
<defs>
<filter id="filter0_dd_2_4" x="0" y="0" width="2403.2" height="2094.2" filterUnits="userSpaceOnUse" color-interpolation-filters="sRGB">
<feFlood flood-opacity="0" result="BackgroundImageFix"/>
<feColorMatrix in="SourceAlpha" type="matrix" values="0 0 0 0 0 0 0 0 0 0 0 0 0 0 0 0 0 0 127 0" result="hardAlpha"/>
<feOffset dy="4"/>
<feGaussianBlur stdDeviation="2"/>
<feComposite in2="hardAlpha" operator="out"/>
<feColorMatrix type="matrix" values="0 0 0 0 0 0 0 0 0 0 0 0 0 0 0 0 0 0 0.25 0"/>
<feBlend mode="normal" in2="BackgroundImageFix" result="effect1_dropShadow_2_4"/>
<feColorMatrix in="SourceAlpha" type="matrix" values="0 0 0 0 0 0 0 0 0 0 0 0 0 0 0 0 0 0 127 0" result="hardAlpha"/>
<feOffset dy="4"/>
<feGaussianBlur stdDeviation="2"/>
<feComposite in2="hardAlpha" operator="out"/>
<feColorMatrix type="matrix" values="0 0 0 0 0 0 0 0 0 0 0 0 0 0 0 0 0 0 0.25 0"/>
<feBlend mode="normal" in2="effect1_dropShadow_2_4" result="effect2_dropShadow_2_4"/>
<feBlend mode="normal" in="SourceGraphic" in2="effect2_dropShadow_2_4" result="shape"/>
</filter>
<filter id="filter1_f_2_4" x="-767.133" y="-510.6" width="3965.6" height="2640.2" filterUnits="userSpaceOnUse" color-interpolation-filters="sRGB">
<feFlood flood-opacity="0" result="BackgroundImageFix"/>
<feBlend mode="normal" in="SourceGraphic" in2="BackgroundImageFix" result="shape"/>
<feGaussianBlur stdDeviation="161" result="effect1_foregroundBlur_2_4"/>
</filter>
<linearGradient id="paint0_linear_2_4" x1="2149" y1="904" x2="452.5" y2="652.5" gradientUnits="userSpaceOnUse">
<stop stop-color="#F5FEFF"/>
<stop offset="0.5" stop-color="#C4CBCC"/>
<stop offset="1" stop-color="#CBDCFF"/>
</linearGradient>
<radialGradient id="paint1_radial_2_4" cx="0" cy="0" r="1" gradientUnits="userSpaceOnUse" gradientTransform="translate(1189 904) rotate(74.3333) scale(540 960)">
<stop stop-color="#FFFCFC" stop-opacity="0"/>
<stop offset="1" stop-color="#F8F1F1"/>
</radialGradient>
<linearGradient id="paint2_linear_2_4" x1="1679.67" y1="522.4" x2="1679.67" y2="1807.6" gradientUnits="userSpaceOnUse">
<stop stop-color="#093AFF"/>
<stop offset="0.5" stop-color="#237FB7"/>
<stop offset="1" stop-color="#39DB9F"/>
</linearGradient>
<linearGradient id="paint3_linear_2_4" x1="1816.2" y1="-32" x2="1816.2" y2="1253.2" gradientUnits="userSpaceOnUse">
<stop offset="0.3" stop-color="#093AFF"/>
<stop offset="0.5" stop-color="#237FB7"/>
<stop offset="1" stop-color="#FFFCFC" stop-opacity="0"/>
</linearGradient>
<radialGradient id="paint4_radial_2_4" cx="0" cy="0" r="1" gradientUnits="userSpaceOnUse" gradientTransform="translate(229 341.5) rotate(90) scale(538.5 633)">
<stop stop-color="#DAFFD4" stop-opacity="0.91"/>
<stop offset="1" stop-color="#D4FDFF" stop-opacity="0"/>
</radialGradient>
<radialGradient id="paint5_radial_2_4" cx="0" cy="0" r="1" gradientUnits="userSpaceOnUse" gradientTransform="translate(186.5 975) rotate(90) scale(523 437.5)">
<stop stop-color="#377AFF" stop-opacity="0.6"/>
<stop offset="1" stop-color="#D4FDFF" stop-opacity="0"/>
</radialGradient>
<radialGradient id="paint6_radial_2_4" cx="0" cy="0" r="1" gradientUnits="userSpaceOnUse" gradientTransform="translate(1324.5 494) rotate(90) scale(299 772.5)">
<stop stop-color="#377AFF"/>
<stop offset="0.415" stop-color="#377AFF" stop-opacity="0.5"/>
<stop offset="0.685" stop-color="#377AFF" stop-opacity="0.25"/>
<stop offset="1" stop-color="#377AFF" stop-opacity="0"/>
</radialGradient>
<radialGradient id="paint7_radial_2_4" cx="0" cy="0" r="1" gradientUnits="userSpaceOnUse" gradientTransform="translate(2027 1048) rotate(90) scale(422 815)">
<stop stop-color="#377AFF" stop-opacity="0.7"/>
<stop offset="0.415" stop-color="#377AFF" stop-opacity="0.5"/>
<stop offset="0.685" stop-color="#377AFF" stop-opacity="0.25"/>
<stop offset="1" stop-color="#377AFF" stop-opacity="0"/>
</radialGradient>
<radialGradient id="paint8_radial_2_4" cx="0" cy="0" r="1" gradientUnits="userSpaceOnUse" gradientTransform="translate(2087 675) rotate(90) scale(422 815)">
<stop stop-color="#377AFF" stop-opacity="0.7"/>
<stop offset="0.415" stop-color="#377AFF" stop-opacity="0.5"/>
<stop offset="0.685" stop-color="#377AFF" stop-opacity="0.25"/>
<stop offset="1" stop-color="#377AFF" stop-opacity="0"/>
</radialGradient>
<radialGradient id="paint9_radial_2_4" cx="0" cy="0" r="1" gradientUnits="userSpaceOnUse" gradientTransform="translate(765.6 642.6) rotate(90) scale(642.6 761.6)">
<stop stop-color="#DAFFD4" stop-opacity="0.91"/>
<stop offset="1" stop-color="#D4FDFF" stop-opacity="0"/>
</radialGradient>
<radialGradient id="paint10_radial_2_4" cx="0" cy="0" r="1" gradientUnits="userSpaceOnUse" gradientTransform="translate(1637.6 928.6) rotate(90) scale(642.6 761.6)">
<stop stop-color="#DAFFD4" stop-opacity="0.91"/>
<stop offset="1" stop-color="#D4FDFF" stop-opacity="0"/>
</radialGradient>
<radialGradient id="paint11_radial_2_4" cx="0" cy="0" r="1" gradientUnits="userSpaceOnUse" gradientTransform="translate(1597 686) rotate(90) scale(464 575)">
<stop stop-color="#F3FFAE" stop-opacity="0.55"/>
<stop offset="1" stop-color="#D4FDFF" stop-opacity="0"/>
</radialGradient>
<radialGradient id="paint12_radial_2_4" cx="0" cy="0" r="1" gradientUnits="userSpaceOnUse" gradientTransform="translate(1028.5 880) rotate(90) scale(464 948.5)">
<stop stop-color="#F7FFEB" stop-opacity="0.91"/>
<stop offset="1" stop-color="#D4FDFF" stop-opacity="0"/>
</radialGradient>
<radialGradient id="paint13_radial_2_4" cx="0" cy="0" r="1" gradientUnits="userSpaceOnUse" gradientTransform="translate(978.6 1443.6) rotate(90) scale(642.6 761.6)">
<stop offset="0.11" stop-color="#DAFFD4" stop-opacity="0.91"/>
<stop offset="1" stop-color="#DAFFD4" stop-opacity="0"/>
</radialGradient>
<radialGradient id="paint14_radial_2_4" cx="0" cy="0" r="1" gradientUnits="userSpaceOnUse" gradientTransform="translate(382.5 577) rotate(90) scale(382 153.5)">
<stop offset="0.11" stop-color="#DAFFD4" stop-opacity="0.91"/>
<stop offset="1" stop-color="#DAFFD4" stop-opacity="0"/>
</radialGradient>
<clipPath id="clip0_2_4">
<rect x="229" y="364" width="1920" height="1080" fill="white"/>
</clipPath>
</defs>
</svg>
