<svg width="26" height="26" viewBox="0 0 26 26" fill="none" xmlns="http://www.w3.org/2000/svg">
<path d="M26 13C26 20.1797 20.1797 26 13 26C5.8203 26 0 20.1797 0 13C0 5.8203 5.8203 0 13 0C20.1797 0 26 5.8203 26 13Z" fill="url(#paint0_linear_2_10)"/>
<path d="M19 13C19 16.3137 16.3137 19 13 19C9.68629 19 7 16.3137 7 13C7 9.68629 9.68629 7 13 7C16.3137 7 19 9.68629 19 13Z" fill="#F5F5F5"/>
<path d="M14 2.5C14 3.88071 13.5523 5 13 5C12.4477 5 12 3.88071 12 2.5C12 1.11929 12.4477 0 13 0C13.5523 0 14 1.11929 14 2.5Z" fill="#F5F5F5"/>
<path d="M21.182 19.7678C22.1583 20.7441 22.6332 21.8521 22.2426 22.2426C21.8521 22.6332 20.7441 22.1583 19.7678 21.182C18.7915 20.2057 18.3166 19.0976 18.7071 18.7071C19.0976 18.3166 20.2057 18.7915 21.182 19.7678Z" fill="#DBE0DE"/>
<path d="M6.18198 4.76777C7.15829 5.74408 7.63316 6.85212 7.24264 7.24264C6.85212 7.63316 5.74408 7.15829 4.76777 6.18198C3.79146 5.20567 3.31658 4.09763 3.70711 3.70711C4.09763 3.31658 5.20567 3.79146 6.18198 4.76777Z" fill="#F5F5F5"/>
<path d="M19.7678 4.76777C20.7441 3.79146 21.8521 3.31658 22.2426 3.70711C22.6332 4.09763 22.1583 5.20567 21.182 6.18198C20.2057 7.15829 19.0976 7.63316 18.7071 7.24264C18.3166 6.85212 18.7915 5.74408 19.7678 4.76777Z" fill="#F5F5F5"/>
<path d="M4.76777 19.7678C5.74408 18.7915 6.85212 18.3166 7.24264 18.7071C7.63316 19.0976 7.15829 20.2057 6.18198 21.182C5.20567 22.1583 4.09763 22.6332 3.70711 22.2426C3.31658 21.8521 3.79146 20.7441 4.76777 19.7678Z" fill="#D8D8D8"/>
<path d="M2.5 14C1.11929 14 0 13.5523 0 13C0 12.4477 1.11929 12 2.5 12C3.88071 12 5 12.4477 5 13C5 13.5523 3.88071 14 2.5 14Z" fill="#DBE0DE"/>
<path d="M23.5 14C22.1193 14 21 13.5523 21 13C21 12.4477 22.1193 12 23.5 12C24.8807 12 26 12.4477 26 13C26 13.5523 24.8807 14 23.5 14Z" fill="#DBE0DE"/>
<path d="M14 23.5C14 24.8807 13.5523 26 13 26C12.4477 26 12 24.8807 12 23.5C12 22.1193 12.4477 21 13 21C13.5523 21 14 22.1193 14 23.5Z" fill="#DBD7D7"/>
<defs>
<linearGradient id="paint0_linear_2_10" x1="13" y1="0" x2="13" y2="26" gradientUnits="userSpaceOnUse">
<stop stop-color="#EFFF9F"/>
<stop offset="1" stop-color="#4171FF"/>
</linearGradient>
</defs>
</svg>
